<svg width="410" height="381" viewBox="0 0 410 381" fill="none" xmlns="http://www.w3.org/2000/svg">
<path fill-rule="evenodd" clip-rule="evenodd" d="M80.3208 168.225L206.106 168.345L206.242 353.894L91.2721 267.739L80.3208 168.225ZM73.8936 104.488L344.299 105.408L339.523 163.825L79.2917 163.885L73.8742 104.488H73.8936ZM338.765 168.225L212.98 168.345L212.844 353.894L328.901 267.799L338.765 168.205V168.225ZM340.319 240.141L343.134 208.962C343.6 205.563 343.911 201.923 344.066 198.423C344.222 195.023 344.998 191.503 345.154 187.984C345.154 184.464 345.775 181.064 346.086 177.544L346.707 169.805C346.862 168.625 347.018 168.285 347.018 167.345C347.639 160.305 348.105 153.285 348.746 146.126C349.057 142.966 349.678 139.326 349.833 135.686L350.765 125.487C351.076 122.087 351.697 118.327 351.697 115.048C351.853 111.528 352.319 108.008 352.629 104.508C353.095 100.528 354.202 96.6487 349.503 96.7686C339.969 97.0086 330.105 96.6487 320.571 96.6487C272.242 96.6487 224.067 96.1687 175.738 96.1687C156.34 96.1687 137.408 95.7087 118.01 95.7087H88.9226C82.2043 95.7087 73.7577 95.4687 67.0199 95.7087C64.8257 95.7087 63.4277 96.8886 63.583 99.2285L68.4374 142.946C68.5927 144.126 68.748 145.046 68.9034 146.106C69.2141 148.326 69.3694 150.566 69.6801 152.786C69.8354 155.125 70.3014 157.125 70.3014 159.585C70.4568 161.225 70.6121 164.985 70.9228 166.385L74.049 192.983C74.2043 195.083 74.515 197.663 74.8257 199.783L83.1169 273.399L99.8546 286.058C101.427 287.118 102.67 288.058 104.088 289.218C106.437 291.098 113.777 296.378 116.767 298.597C118.165 299.657 119.583 300.697 120.981 301.757L133.66 311.137C135.233 312.317 136.165 313.017 137.893 314.297L146.34 320.616C147.757 321.676 149 322.496 150.573 323.656L197.038 358.234C198.281 359.294 199.698 360.334 201.097 361.274C208.126 365.974 209.543 370.193 215.329 365.734C216.572 364.794 217.99 363.734 219.388 362.574C222.048 360.474 224.863 358.474 227.834 356.254L244.572 343.595C255.368 335.615 267.096 326.596 278.047 318.276L336.863 273.979C337.562 273.199 340.202 241.861 340.299 240.101L340.319 240.141Z" fill="white"/>
<path fill-rule="evenodd" clip-rule="evenodd" d="M200.455 199.383C200.455 199.383 179.659 195.863 168.553 194.583C164.164 194.123 161.99 195.043 161.99 195.043C161.99 195.043 156.669 196.563 153.854 200.443C150.883 204.663 150.417 211.342 150.417 211.342L96.6116 202.783C96.6116 202.783 98.3397 214.982 118.359 224.582C133.058 231.621 139.155 235.121 139.155 235.121L114.126 271.919C114.126 271.919 151.97 264.999 161.368 250.24C168.728 238.521 167.465 219.522 167.465 219.522C167.465 219.522 167.776 211.902 169.97 206.863C171.854 202.403 175.601 200.523 175.601 200.523C175.601 200.523 180.145 198.883 184.824 198.643C192.028 198.283 200.475 199.343 200.475 199.343" fill="white"/>
<path fill-rule="evenodd" clip-rule="evenodd" d="M271.407 233.361C268.902 232.781 261.717 229.141 263.115 226.681C264.203 225.741 265.776 226.681 267.659 225.501C268.902 224.802 270.164 225.621 270.009 221.862C267.504 220.802 265.31 220.102 262.979 221.742C261.407 222.922 258.766 224.322 258.591 226.781C258.28 229.941 262.649 233.221 264.844 234.641C265.62 235.101 267.038 235.701 267.659 236.401C267.038 237.921 258.591 240.621 267.348 246.94C267.038 248.12 266.106 248.46 265.931 249.88C265.154 254.92 269.368 256.2 271.096 257.86C270.785 258.32 264.844 263.359 271.251 265.479C270.785 267.239 271.096 267.599 272.339 268.879L272.805 269.459C272.805 269.579 272.96 269.579 272.96 269.699L273.115 269.819C272.805 270.639 272.183 270.999 271.717 271.459L273.115 270.999C273.115 272.879 272.96 275.459 273.581 276.859L273.892 270.539C274.979 270.659 275.135 271.239 276.086 271.479L274.688 269.839C276.572 268.319 276.882 268.199 276.416 265.739C277.659 264.799 279.698 264.219 279.232 262.099C278.921 259.88 277.659 259.06 276.727 257.88C278.455 255.76 282.203 256.24 281.426 250.02C281.115 248.5 280.649 247.8 279.853 246.98L281.271 246.04C282.513 245.34 283.931 243.46 283.775 241.581C283.775 238.641 281.581 237.601 279.717 236.421C280.339 235.721 282.067 235.241 283.931 233.601C284.397 233.141 284.863 232.901 285.348 232.541L287.698 229.961C289.096 227.501 288.63 225.042 286.455 223.402C282.067 220.122 282.067 219.882 277.698 222.002L277.076 222.242L276.921 222.362C276.921 224.702 277.853 224.702 279.426 225.641C280.999 226.581 282.707 225.521 283.97 226.821C285.212 229.281 278.339 233.261 275.678 233.621C275.834 227.641 276.766 220.022 276.766 213.802C276.766 211.462 277.076 209.582 277.076 207.363C277.232 205.843 277.232 198.563 277.698 197.523C278.319 196.583 278.474 196.463 278.94 195.183C280.513 189.324 273.931 183.224 269.562 189.084C268.63 190.363 267.989 192.483 268.475 194.703C268.941 197.163 270.047 196.923 270.047 199.983C270.047 202.323 270.047 204.443 270.203 206.663C270.513 211.002 270.669 215.682 270.824 219.902C270.979 224.242 271.601 229.281 271.445 233.381M271.756 239.241L271.911 243.92C270.028 243.8 268.164 243.56 268.319 241.701C268.63 240.181 270.203 239.481 271.756 239.241ZM275.348 243.92L275.504 238.881C277.232 239.341 280.047 240.641 278.63 242.641C278.008 243.7 276.436 243.82 275.348 243.92ZM272.222 249.2L272.377 254.7C271.601 254.24 269.873 252.7 269.562 251.76C269.096 250 270.805 248.72 272.222 249.18V249.2ZM279.426 206.303C282.086 206.543 284.902 206.183 287.406 205.843L305.076 203.023C309.62 202.203 317.115 199.743 320.882 197.863L324.785 195.523C325.251 195.163 325.406 195.163 326.027 194.703C326.96 194.123 329.93 191.543 330.416 190.723C329.639 191.083 328.532 191.183 327.445 191.663C326.513 192.123 325.251 192.243 324.163 192.603C320.416 193.883 307.736 196.363 303.678 197.063L281.465 199.523C280.047 199.983 280.047 200.583 279.737 202.103C279.426 203.383 279.581 204.923 279.426 206.323V206.303ZM267.853 205.723L267.232 199.983C267.077 199.743 267.232 199.743 267.076 199.623L266.921 199.263C266.766 198.563 261.29 198.683 260.203 198.563C255.348 198.203 244.882 197.043 240.65 196.343C236.417 195.643 232.358 194.703 228.3 194.003L219.543 191.783C218.456 191.543 217.659 190.963 216.572 190.843C217.504 192.483 224.087 196.823 226.261 197.763C232.824 200.583 232.358 200.223 238.611 201.983C242.824 203.163 264.106 206.563 267.853 205.743V205.723ZM230.786 202.203C231.096 202.363 231.407 202.516 231.718 202.663C232.96 203.483 235.776 205.603 238.125 206.423C240.785 207.483 243.756 208.762 246.882 209.362C250.319 209.942 265.193 212.062 267.989 211.122C268.144 210.182 267.834 207.722 267.678 206.783C258.766 206.543 247.97 205.843 239.368 203.843C236.863 203.383 234.358 203.023 231.853 202.203C231.077 201.843 231.077 201.963 230.766 202.203H230.786ZM279.271 211.582C282.086 212.282 296.164 210.762 300.067 209.702C303.037 208.882 306.319 208.062 308.824 206.763C310.397 206.063 315.076 203.603 316.028 202.083L306.649 204.303C300.863 205.483 292.105 206.883 286.319 207.123C279.911 207.363 279.115 206.883 279.29 211.582H279.271ZM278.805 216.622C283.814 217.322 295.698 216.042 300.863 213.682C301.484 213.322 305.562 210.982 306.183 210.282C303.989 210.522 301.329 211.462 299.309 211.802C296.96 212.262 294.144 212.622 291.95 212.862C289.135 213.222 281.154 212.982 280.067 213.442C278.494 214.022 278.824 214.842 278.824 216.602L278.805 216.622ZM265.659 216.262L268.63 216.382C268.941 215.442 268.63 213.802 268.319 212.742C258.3 212.622 256.902 212.982 246.882 211.342C244.999 210.982 242.824 210.282 240.941 210.162C240.941 210.162 241.096 210.162 241.096 210.282H241.251L243.29 211.682C244.222 212.042 245.018 212.502 245.95 212.962C248.766 214.482 251.737 215.062 254.863 215.422C258.611 215.782 260.96 216.242 265.659 216.242V216.262ZM274.727 255.06L274.882 249.08C276.455 248.84 278.319 249.9 277.853 251.78C277.542 253.06 275.814 254.6 274.727 255.06Z" fill="white"/>
<path fill-rule="evenodd" clip-rule="evenodd" d="M311.154 119.167V133.347H318.824C320.707 133.347 322.105 132.987 322.727 132.407C323.659 131.587 324.144 130.187 324.144 128.187H325.231V140.606H324.144C323.989 138.846 323.678 137.786 323.523 137.206C323.212 136.627 322.746 136.147 321.95 135.807C321.328 135.447 320.222 135.347 318.824 135.347H311.154V147.066C311.154 148.706 311.154 149.646 311.309 150.006C311.464 150.366 311.62 150.586 312.086 150.826C312.396 151.066 313.018 151.186 313.969 151.186H319.911C321.794 151.186 323.193 151.066 324.144 150.726C325.076 150.486 325.872 149.906 326.804 149.086C327.736 147.906 328.843 146.266 329.93 144.166H331.018L328.047 153.066H301.134V152.126H302.377C303.154 152.126 303.95 151.886 304.727 151.546C305.348 151.186 305.659 150.846 305.814 150.266C305.969 149.686 306.125 148.506 306.125 146.746V123.547C306.125 121.207 305.969 119.787 305.503 119.327C304.882 118.628 303.775 118.268 302.377 118.268H301.134V117.208H328.047L328.358 125.187H327.425C327.115 123.187 326.649 121.907 326.183 121.207C325.717 120.507 325.095 120.027 324.299 119.687C323.523 119.327 322.416 119.227 320.707 119.227H311.173L311.154 119.167ZM261.407 117.168H270.785L292.222 144.126V123.487C292.222 121.267 291.911 119.847 291.445 119.267C290.824 118.568 289.717 118.208 288.474 118.208H287.232V117.148H299.426V118.208H298.183C296.61 118.208 295.678 118.668 295.057 119.607C294.591 120.187 294.435 121.367 294.435 123.467V153.586H293.503L270.513 124.747V146.786C270.513 149.006 270.824 150.426 271.29 151.006C271.911 151.706 272.863 152.066 274.261 152.066H275.504V153.006H263.309V152.066H264.552C266.125 152.066 267.057 151.606 267.678 150.666C268.144 150.086 268.3 148.786 268.3 146.806V121.947C267.212 120.667 266.572 119.847 265.95 119.487C265.484 119.127 264.708 118.788 263.601 118.428C263.135 118.308 262.358 118.188 261.407 118.188V117.128V117.168ZM242.785 118.348C239.659 118.348 237.31 119.527 235.271 121.867C232.921 124.907 231.834 129.247 231.834 134.887C231.834 140.526 233.077 145.326 235.426 148.486C237.31 150.826 239.815 152.006 242.941 152.006C246.067 152.006 248.882 150.726 250.921 148.146C253.115 145.446 254.203 141.346 254.203 135.727C254.203 129.507 252.96 124.947 250.611 122.007C248.727 119.547 246.222 118.368 242.785 118.368V118.348ZM243.407 116.468C247.795 116.468 251.698 118.228 255.135 121.747C258.416 125.267 259.989 129.727 259.989 134.987C259.989 140.246 258.416 144.946 254.979 148.466C251.698 152.106 247.62 153.866 242.941 153.866C238.261 153.866 234.028 152.106 230.902 148.586C227.62 145.186 225.892 140.606 225.892 134.987C225.892 129.367 227.776 124.667 231.523 121.047C234.805 118.008 238.727 116.468 243.407 116.468ZM223.387 117.168L223.698 125.607H222.766C222.611 124.207 222.3 123.147 221.989 122.447C221.523 121.387 220.747 120.687 219.951 120.227C219.019 119.767 217.756 119.527 216.358 119.527H211.504V146.846C211.504 149.066 211.659 150.486 212.125 151.066C212.747 151.766 213.854 152.126 215.096 152.126H216.339V153.066H201.64V152.126H202.883C204.3 152.126 205.388 151.666 206.009 150.726C206.32 150.146 206.475 148.846 206.475 146.866V119.547H202.417C200.689 119.547 199.601 119.667 198.825 119.907C198.048 120.267 197.252 120.847 196.63 121.787C196.009 122.847 195.543 124.007 195.543 125.647H194.456L194.922 117.208H223.387V117.168ZM171.776 134.627H173.174C176.611 134.627 179.116 133.927 180.689 132.407C182.417 131.007 183.349 129.127 183.349 126.787C183.349 124.447 182.572 122.807 181.31 121.387C179.893 119.987 178.029 119.287 175.834 119.287C174.902 119.287 173.485 119.407 171.776 119.747V134.627ZM196.494 153.026H187.271L175.543 136.267C174.611 136.387 173.815 136.387 173.349 136.387H172.572C172.417 136.387 172.106 136.387 171.796 136.267V146.706C171.796 149.046 172.106 150.346 172.572 150.926C173.194 151.746 174.145 152.106 175.543 152.106H176.786V153.046H161.932V152.106H163.174C164.747 152.106 165.679 151.646 166.3 150.586C166.767 150.126 166.922 148.826 166.922 146.726V123.627C166.922 121.287 166.611 119.867 166.145 119.407C165.524 118.588 164.572 118.228 163.174 118.228H161.932V117.168H174.592C178.339 117.168 180.999 117.528 182.728 118.108C184.456 118.568 186.009 119.627 187.271 121.147C188.514 122.547 189.155 124.427 189.155 126.427C189.155 128.647 188.378 130.527 186.961 132.167C185.543 133.807 183.368 134.987 180.553 135.567L187.757 145.886C189.329 148.226 190.728 149.866 191.99 150.566C193.077 151.386 194.65 151.846 196.533 152.086V153.026H196.494ZM141.757 118.328C138.631 118.328 136.126 119.507 134.242 121.847C131.893 124.887 130.806 129.227 130.806 134.867C130.806 140.506 131.893 145.306 134.398 148.466C136.281 150.806 138.786 151.986 141.757 151.986C145.039 151.986 147.699 150.706 149.893 148.126C152.087 145.426 153.019 141.326 153.019 135.707C153.019 129.487 151.932 124.927 149.582 121.987C147.699 119.527 145.039 118.348 141.757 118.348V118.328ZM142.223 116.448C146.767 116.448 150.67 118.208 153.951 121.727C157.388 125.247 158.961 129.707 158.961 134.967C158.961 140.226 157.233 144.926 153.951 148.446C150.67 152.086 146.592 153.846 141.912 153.846C137.233 153.846 133 152.086 129.718 148.566C126.437 145.166 124.864 140.586 124.864 134.967C124.864 129.347 126.747 124.647 130.495 121.027C133.776 117.988 137.699 116.448 142.223 116.448ZM98.7476 150.446C100.786 150.906 102.65 151.146 104.689 151.146C107.816 151.146 110.165 150.446 111.718 149.046C113.291 147.646 114.223 145.886 114.223 143.646C114.223 142.366 113.757 140.946 113.136 139.666C112.359 138.386 111.097 137.446 109.544 136.627C107.816 135.927 105.796 135.567 103.291 135.567H100.631C99.8544 135.687 99.233 135.687 98.7476 135.807V150.466V150.446ZM98.7476 133.327C99.369 133.447 100.146 133.567 100.942 133.567C101.718 133.687 102.67 133.687 103.602 133.687C106.107 133.687 107.99 133.447 109.233 132.867C110.476 132.287 111.427 131.467 112.204 130.287C112.825 129.227 113.136 127.947 113.136 126.527C113.136 124.427 112.359 122.667 110.631 121.247C109.058 119.727 106.573 119.027 103.427 119.027C101.699 119.027 100.146 119.147 98.7282 119.607V133.327H98.7476ZM112.204 134.727C114.709 135.307 116.417 136.127 117.68 137.306C119.252 138.946 120.184 140.946 120.184 143.286C120.184 145.046 119.563 146.686 118.456 148.326C117.369 149.966 115.951 151.146 113.913 151.966C112.029 152.666 109.214 153.026 105.311 153.026H88.7283V152.086H90.1457C91.5438 152.086 92.6506 151.626 93.2719 150.686C93.5826 150.106 93.8933 148.686 93.8933 146.706V123.607C93.8933 121.387 93.5826 119.967 93.1166 119.387C92.4952 118.568 91.3884 118.208 90.1457 118.208H88.7283V117.148H103.893C106.709 117.148 108.903 117.388 110.612 117.848C113.116 118.428 115.155 119.607 116.398 121.247C117.796 122.767 118.437 124.647 118.437 126.747C118.437 128.627 117.971 130.147 116.864 131.547C115.777 132.947 114.204 134.007 112.165 134.707L112.204 134.727Z" fill="white"/>
<path fill-rule="evenodd" clip-rule="evenodd" d="M214.067 68.8702C216.261 69.4502 218.125 71.5701 218.3 74.3699C218.455 78.0097 215.795 80.9295 212.358 81.0495C208.921 81.2895 205.951 78.4697 205.795 74.9499C205.64 72.01 207.523 69.7902 209.543 68.9702C206.883 63.5705 202.339 55.131 187.329 48.2314C188.417 46.7115 190.766 44.0116 192.028 41.3118C197.349 44.5916 204.378 52.9111 207.989 59.7107H208.3C208.145 55.9509 205.329 44.8316 195.64 35.9121C196.727 34.1522 198.611 31.6923 199.854 29.2324C203.29 31.6923 207.213 41.3118 210.339 54.431L210.494 54.311C210.65 48.0914 208.766 32.1523 204.397 22.7728C205.815 21.1329 208.145 17.6131 209.718 14.6932C211.601 17.5131 214.106 20.6729 215.504 22.3128C211.912 32.0323 211.271 48.0914 211.912 54.311H212.222C214.106 41.0718 217.387 31.1123 220.514 28.2925C222.086 30.6323 224.106 32.9722 225.368 34.6121C216.455 44.3316 214.572 55.591 214.727 59.4707H214.883C218.009 52.3111 224.416 43.5316 229.271 39.6718C230.844 42.2517 233.329 44.8316 234.591 46.1115C220.203 54.431 216.3 63.2305 214.106 68.8502M142.941 45.9915H142.786C136.689 45.9915 130.437 47.1714 124.165 49.1513C116.495 51.6112 94.1262 61.2306 85.9903 64.1505C75.3496 67.9103 68.1652 69.0702 60.4954 68.1303C64.3983 74.5699 71.6021 77.1498 79.8933 77.1498C87.0971 77.1498 94.4369 75.1499 102.262 72.81C109.136 70.5901 128.844 62.7306 139.64 59.3307C150.281 55.6909 156.844 54.751 161.077 54.751C157.64 49.4713 150.436 45.9515 142.941 45.9515V45.9915ZM190.96 79.9896C188.922 79.9896 186.727 78.8097 185.329 77.4097C184.242 76.1298 184.242 74.9499 185.174 74.2499C187.368 72.85 188.145 70.6101 188.145 68.5102C188.145 62.8905 181.271 58.4308 174.533 58.4308H174.378C168.592 58.4308 163.427 59.1308 154.359 61.7106C144.514 64.6505 120.107 74.0099 112.281 76.5898C101.951 80.1096 94.1456 82.2095 86.0097 82.2095C74.903 82.2095 63.4856 77.6297 52.0683 66.3904C45.9712 64.0505 36.9033 58.7708 36.9033 50.9112C36.9033 48.0914 39.0975 44.2316 43.1557 44.2316C46.7479 44.2316 48.7867 47.5114 48.7867 49.7313C48.7867 50.4312 48.3207 51.2512 47.544 51.8312C46.3013 52.6511 45.3499 54.171 45.3499 56.2909C45.3499 62.1506 52.709 63.9105 57.8546 63.9105C64.2623 63.9105 73.505 61.3306 84.2816 57.2309C94.4563 53.0111 109 47.3914 112.747 45.9715C116.961 44.4516 125.252 41.6317 134.495 41.6317C142.941 41.6317 154.514 43.6316 168.902 54.411C175.776 54.771 181.737 56.4109 188.611 61.3306C195.174 66.0104 196.902 71.0501 196.902 73.41C196.902 77.7497 193.465 79.9696 190.96 79.9696V79.9896ZM336.59 64.1705C328.455 61.2306 306.086 51.6312 298.591 49.1713C292.183 47.1714 285.931 46.0115 279.814 46.0115H279.659C272.144 46.0115 264.96 49.5313 261.523 54.811C265.756 54.811 272.319 55.7509 282.96 59.3907C293.756 62.7906 313.464 70.6501 320.338 72.87C328.163 75.2099 335.503 77.2097 342.707 77.2097C350.998 77.2097 358.182 74.6299 362.105 68.1903C354.435 69.1302 347.25 67.9503 336.61 64.2105L336.59 64.1705ZM370.532 66.3904C359.114 77.6497 347.697 82.2095 336.59 82.2095C328.455 82.2095 320.629 80.0896 310.319 76.5898C302.649 74.0099 278.105 64.6305 268.241 61.7106C259.173 59.1308 254.008 58.4308 248.222 58.4308H248.067C241.348 58.4308 234.455 62.8905 234.455 68.5102C234.455 70.6101 235.232 72.85 237.426 74.2499C238.513 74.9499 238.513 76.1298 237.271 77.4097C235.873 78.8097 233.679 79.9896 231.64 79.9896C229.135 79.9896 225.698 77.7697 225.698 73.43C225.698 71.0901 227.426 66.0504 233.989 61.3506C240.863 56.4309 246.824 54.791 253.698 54.431C268.086 43.6516 279.659 41.6517 288.105 41.6517C297.484 41.6517 305.62 44.4716 309.853 45.9915C313.6 47.3914 328.144 53.0311 338.319 57.2509C349.115 61.3506 358.493 63.9305 364.745 63.9305C369.911 63.9305 377.25 62.1706 377.25 56.3109C377.25 54.211 376.318 52.6711 375.056 51.8512C374.279 51.2712 373.813 50.4512 373.813 49.7513C373.813 47.5314 375.852 44.2516 379.444 44.2516C383.503 44.2516 385.697 48.1114 385.697 50.9312C385.697 58.7908 376.629 64.0505 370.532 66.4104V66.3904Z" fill="white"/>
</svg>
